<?xml version="1.0" encoding="UTF-8"?><svg xmlns="http://www.w3.org/2000/svg" viewBox="0 0 536.05 107.27"><defs><style>.cls-1{fill:#fa6821;}.cls-2{fill:#fff;}.cls-3{fill:#231f20;}.cls-4{font-family:Arial-BoldItalicMT, Arial;font-size:28px;}.cls-5{fill:none;stroke:#231f20;stroke-miterlimit:10;stroke-width:2px;}</style></defs><g id="H"><path d="M5.14,10.31H58.64v7s-11.5,.67-11.83,9.33v6.67h27.5v-7s-1.5-9.17-12.33-8.83l.17-7.17h53.67v7.17s-12.17-.33-12.17,10.33v24s1,8.5,6,7.5l6.17,.08v7.25H61.97v-7.17h6s5.83-.33,5.67-7.33l.17-11h-27l.33,10.17s.02,3.48,4.33,6.83c0,0,2.41,1.99,7.22,1.46v7.31H5v-7.2s10.41-.08,10.97-5.57c0,0,1.5-1.33,.67-7.17l.17-20.33s-1.15-7.07-7.5-8.5l-4.3-.54,.14-7.29Z"/><path class="cls-1" d="M7.8,15.64v-3.17H54.14v3.17s-12.17,0-11.83,12.33v6s-.5,1.67,4.17,1.33h29s2-1,2-3-.67-8.42-.67-8.42c0,0-1.83-8.08-11.83-8.42l.17-3h46.17v3.33s-9.17-.83-11.5,8.08l-.33,29.58s0,7.5,7.17,8.17h4.67v3.5h-46.5v-3.33l4.83-.17s8.17-.33,7.33-12.17l.17-9-1.17-1.67H43.97l-1.67,1.83,.33,11.83s2.5,9.33,11.33,9.33l.17,3.33H7.8v-3.67s11,1,11.83-9V24.14s-3-8.33-11.83-8.5Z"/></g><g id="E"><path d="M118.88,10.31h77.47v7.47h-33.6s-7.39,1.87-7.11,9.55l-.07,5.89s4.67,.65,8.11-1.72c3.45-2.37,3.16-7.83,3.16-7.83h12.35l.22,27.43h-12.56s.36-5.24-3.37-8.4c0,0-3.16-2.08-7.68-1.79l-.14,10.7s.22,7.97,6.1,7.83h35.18v7.49H118.88v-7.28s7.97,.29,8.83-3.52c0,0,1.65-1.29,1.36-9.76l-.14-19.96s-.14-4.88-3.09-7.11-6.96-1.44-6.96-1.44v-7.54Z"/><path class="cls-1" d="M121.03,15.63v-3.15l69.78-.3v3.45h-31.09s-5.6,.57-7.11,4.09c0,0-1.36,.5-2.37,5.53l-.07,8.69,1.15,1.36h7.97s4.52-.36,6.17-2.51c0,0,3.45-2.73,3.37-7.04h4.95l.14,23.4h-5.17s.07-4.31-2.87-7.25c-2.94-2.94-9.48-4.32-14.22-3.09l-1.58,1.23,.14,13.64s.14,6.75,6.32,7.68h34.82v3.78H121.03v-3.5l3.16-.22s3.45-.36,5.89-5.03c0,0,2.01-3.02,.93-14.36l-.22-19.17s-.14-2.87-4.38-5.67c0,0-1.87-1.87-5.38-1.58Z"/></g><g id="_"><path d="M190.81,36.38s-1.51-8.97,6.1-7.11c0,0,7.13,4.09-3.11,7.9l1.82,5.46s2.01-1.79,2.51-2.87c0,0,.12-1.01-1.23-1.51v-1.15l6.11,.07v1.08s-2.37,1.08-3.16,2.51c0,0-1.7,2.01-3,3.23,0,0,.78,1.94,4.58,0l.79,1.26s-.07,1.11-3.88,1.9c0,0-1.87,.43-4.31-1.22,0,0-4.81,3.16-8.62-.68,0,0-2.54-3.98,1.36-7.14,0,0,3.02-1.94,4.02-1.73Z"/><path class="cls-2" d="M193.61,35.44s-1.36-5.17,2.23-4.67c0,0,3.52,2.44-2.23,4.67Z"/><path class="cls-2" d="M190.96,38.24s-4.45,1.94-2.23,5.82c0,0,.86,2.23,4.09,.57l-1.87-6.39Z"/></g><g id="M"><path class="cls-3" d="M208.91,56.98c-3.45,2.48-5.89,2.66-5.89,2.66l-3.73-.07v7.35l39.85,.12-.14-7.39-4.16-.07c-4.02-.65-6.03-3.09-6.03-3.09-1.58-1.29-2.3-5.24-2.3-5.24l-.14-22.9,23.91,38.7h11.49l23.26-38.27v20.32c.43,3.09-1.79,7.18-1.79,7.18-1.58,3.37-5.24,3.23-5.24,3.23l-4.38,.07,.07,7.47h52.7v-7.39h-2.23c-4.45-.22-7.39-3.23-7.39-3.23-2.08-2.08-2.23-5.31-2.23-5.31l-.07-24.34c-.14-2.73,1.87-5.38,1.87-5.38,2.66-3.81,10.05-3.81,10.05-3.81v-7.26h-45.01l-17.95,29.44-18.52-29.44h-45.3l.29,7.26c5.96,.22,7.68,1.58,7.68,1.58,4.67,2.94,4.52,7.61,4.52,7.61l.05,23.31s-.9,5.26-3.21,6.91Z"/><path class="cls-1" d="M201.73,12.33h38.41l19.53,31.09s1.44,2.87,4.45,0c3.02-2.87,18.52-31.09,18.52-31.09h38.27v3.16s-10.77,.43-11.63,9.55l-.36,26.71s1.36,10.63,11.99,9.84v3.45h-45.45l.14-3.37,3.81-.07s7.11-.72,7.61-10.7l.22-28.65-1.44-1.29-2.08,.07-1.08,1.15-25.77,42.5-5.24,.36-26.2-42.93-1.15-1.01-2.3-.14-.93,1.08-.14,30.66s1.79,9.33,12.42,8.9l.22,3.45h-32.24v-3.45s9.69,2.66,12.85-10.34l-.14-25.06s.36-10.12-12.2-10.55l-.07-3.3Z"/></g><g id="Registered"><path class="cls-3" d="M332.32,4.71V15.1h2.37v-4.27l1.21,.04s1.35,.69,2.83,4.23h2.85s-2.27-4.23-3.08-4.33l-.06-.33s1.9-.19,2.4-1.92l.04-1.87s-.6-1.54-2.02-1.94h-6.54Z"/><path class="cls-2" d="M334.66,6.48v2.6h2.42s1.61-.19,1.35-1.54c-.23-1.23-1.47-1.06-1.47-1.06h-2.3Z"/><path class="cls-5" d="M345.7,10.64c-.23,4.31-5.26,8.15-8.94,8.15s-9.3-3.27-8.71-9.92c.48-5.4,5.23-7.87,8.91-7.87s9.06,3.69,8.74,9.64Z"/></g><g id="S"><path class="cls-3" d="M388.97,26.92h10.62v-5s1.88-8.44-9.44-11.12c0,0-15.25-1.77-22.56-.89,0,0-12.31-.8-14.62,6.51-2.31,7.31-3,12.94,1,19.81,0,0,2.88,4.56,14.19,4.62l17.12,1.56s4.94-.81,4.56,8.25l-.31,5.35s.06,2.46-3.4,3.87c0,0-1.69,.92-5.52,.98h-10.73s-8.1,.5-8.54-6.4l-.38-6.54-10.46-.02,.29,8.15s.94,6.23,5.35,8.6,6.98,2.46,10.96,2.52l18.06-.1s7.4,.02,10.35-2.62c2.96-2.65,4.08-4.54,4.54-8.44,0,0,.71-10.81-.65-12.83,0,0-.83-6.42-10.58-7.35l-21.33-1.83s-5.42,.06-5.4-6.06l.19-6.19s-.17-4.73,8.37-5.17c0,0,12.65-.75,16.52,1.71,0,0,1.79,.71,1.9,4.67l-.12,3.96Z"/><path class="cls-1" d="M391.09,24.85h2.94v-3.25s-.19-6.75-6.87-8.25c-6.69-1.5-19.12-1.03-19.12-1.03,0,0-8.69-.72-12.12,3.59-3.44,4.31-2.87,14.94-.56,18.31,2.31,3.38,8.81,4.33,12.19,4.45,3.37,.12,17.75,1.3,17.75,1.3,0,0,6.75-.19,6.44,7.38l.06,8.19s-.06,6.69-7.94,7.12c0,0-14.94,1.12-21.94,0s-6.62-9.44-6.37-12.5l-2.81-.06s-.83,7.29,2.62,11.12c0,0,2.29,4.58,11.5,3.79,0,0,13,.58,18.25-.36,5.25-.94,6.54-1.35,9.04-8.6,0,0,.92-10.83-2.42-15.77,0,0-1.5-2.31-15.75-3.19l-12.94-.88s-7.06-1.44-6.5-7.75c0,0-2.87-13.25,8.94-14l14.56-.12s11.25-.56,10.75,6.81l.31,3.69Z"/></g><g id="Layer_8"><polygon points="418.72 52.31 413.3 66.39 402.72 66.39 424.3 10.98 438.72 10.98 460.3 66.39 449.64 66.39 444.14 52.48 418.72 52.31"/><polygon class="cls-1" points="408.22 64.56 405.89 64.56 425.8 12.98 433.64 12.98 453.64 64.56 451.3 64.56 446.39 51.89 444.97 50.31 414.39 50.39 413.22 51.64 408.22 64.56"/><polygon points="431.3 15.31 427.89 15.31 426.47 16.56 415.64 45.23 415.64 47.23 416.89 48.39 442.72 48.39 443.8 47.14 443.8 44.98 432.55 16.23 431.3 15.31"/><polygon class="cls-2" points="431.3 19.64 421.14 46.31 442.05 46.31 431.3 19.64"/></g><g id="Layer_9"><polygon class="cls-3" points="456.39 10.98 472.05 66.39 484.64 66.39 496.14 24.89 508.14 66.39 520.22 66.39 536.05 10.98 525.3 10.98 514.39 51.48 502.8 10.98 489.89 10.98 478.64 51.39 467.14 10.98 456.39 10.98"/><polygon class="cls-1" points="459.3 12.98 461.8 12.98 474.39 57.14 475.72 59.31 477.55 59.31 478.97 58.06 491.39 12.98 497.55 12.98 510.05 57.23 511.47 59.31 513.55 59.31 514.8 57.81 527.14 12.98 529.89 12.98 515.22 64.56 509.89 64.56 496.8 18.31 495.64 17.23 493.55 17.14 492.14 18.64 479.55 64.56 473.97 64.56 459.3 12.98"/></g><g id="Arrow"><polygon class="cls-3" points="0 77.23 34.8 77.23 46.97 86.31 86.14 86.31 86.14 90.89 47.64 90.89 34.47 98.81 0 98.81 10.14 92.98 10.14 82.89 0 77.23"/><polygon class="cls-3" points="450.8 86.23 507.39 86.23 507.05 75.89 535.39 88.48 507.22 101.14 507.22 90.98 450.8 90.73 450.8 86.23"/><text class="cls-4" transform="translate(96.57 96.73)"><tspan x="0" y="0">The saw that cuts straight</tspan></text></g></svg>